<svg xmlns="http://www.w3.org/2000/svg" version="1.1" xmlns:xlink="http://www.w3.org/1999/xlink" xmlns:svgjs="http://svgjs.dev/svgjs" viewBox="0 0 800 800"><defs><filter id="bbburst-blur-1" x="-100%" y="-100%" width="400%" height="400%"><feGaussianBlur in="SourceGraphic" stdDeviation="1"></feGaussianBlur></filter><filter id="bbburst-blur-2" x="-100%" y="-100%" width="400%" height="400%"><feGaussianBlur in="SourceGraphic" stdDeviation="2"></feGaussianBlur></filter><filter id="bbburst-blur-3" x="-100%" y="-100%" width="400%" height="400%"><feGaussianBlur in="SourceGraphic" stdDeviation="4"></feGaussianBlur></filter><filter id="bbburst-blur-4" x="-100%" y="-100%" width="400%" height="400%"><feGaussianBlur in="SourceGraphic" stdDeviation="12"></feGaussianBlur></filter><symbol id="bbburst-shape-1" viewBox="0 0 194 167"><path d="m97 0 96.129 166.5H.871L97 0Z"></path></symbol><symbol id="bbburst-shape-4" viewBox="0 0 149 143"><path d="M71.647 2.781c.898-2.764 4.808-2.764 5.706 0l15.445 47.534a3 3 0 0 0 2.853 2.073h49.98c2.906 0 4.115 3.719 1.764 5.427L106.96 87.193a2.999 2.999 0 0 0-1.09 3.354l15.445 47.534c.898 2.764-2.266 5.062-4.617 3.354l-40.435-29.378a3 3 0 0 0-3.526 0l-40.435 29.378c-2.351 1.708-5.515-.59-4.617-3.354L43.13 90.547a3 3 0 0 0-1.09-3.354L1.605 57.815c-2.35-1.708-1.142-5.427 1.764-5.427h49.98a3 3 0 0 0 2.853-2.073L71.647 2.781Z"></path></symbol><symbol id="bbburst-shape-6" viewBox="0 0 133 116"><path d="M59.7487 10.2513c-13.6683-13.66839-35.8291-13.66839-49.4974 0-13.66839 13.6683-13.66839 35.8291 0 49.4974l49.4974-49.4974ZM66.5 66.5 41.7513 91.2487 66.5 115.997l24.7487-24.7483L66.5 66.5Zm56.249-6.7513c13.668-13.6683 13.668-35.8291 0-49.4974-13.669-13.66839-35.8294-13.66839-49.4977 0l49.4977 49.4974Zm-112.4977 0 31.5 31.5 49.4974-49.4974-31.5-31.5-49.4974 49.4974Zm80.9974 31.5 31.5003-31.5-49.4977-49.4974-31.5 31.5 49.4974 49.4974Z"></path></symbol><symbol id="bbburst-shape-8" viewBox="0 0 87 168"><path d="m12 12 31.2546 18.0749c16.4102 9.4902 20.014 31.6325 7.4603 45.8369L36.3296 92.1884c-12.5684 14.2206-8.9394 36.3916 7.5068 45.8636L75 156" stroke-width="14" stroke-linecap="round" stroke-linejoin="round"></path></symbol><symbol id="bbburst-shape-10" viewBox="0 0 145 145"><circle cx="72.5" cy="72.5" r="61.5" fill="none" stroke-width="22"></circle></symbol></defs><use xlink:href="#bbburst-shape-1" width="35.96096807660761" opacity="0.20199801107625093" transform="matrix(1.0530225607969201,-0.6735306128548996,0.6735306128548996,1.0530225607969201,-231.17979149643446,-115.80711539233329)" fill="#2c2891" filter="url(#bbburst-blur-3)"></use><use xlink:href="#bbburst-shape-10" width="21.505873017307582" opacity="0.6681214299838305" transform="matrix(0.9824018034837861,-0.18677980755907314,0.18677980755907314,0.9824018034837861,174.65507989081686,60.86115269412744)" fill="none" stroke="#ff5c58" filter="url(#bbburst-blur-1)"></use><use xlink:href="#bbburst-shape-10" width="23.802886172019505" opacity="0.6759723282726764" transform="matrix(0.8260216782303116,0.5636383477848004,-0.5636383477848004,0.8260216782303116,501.8335017920153,-28.291803386506786)" fill="none" stroke="#00a19d" filter="url(#bbburst-blur-1)"></use><use xlink:href="#bbburst-shape-8" width="31.51824051090273" opacity="0.5747930335662469" transform="matrix(0.910298052847394,-0.4139534454286413,0.4139534454286413,0.910298052847394,28.752975800713813,39.439758559476445)" fill="none" stroke="#00a19d" filter="url(#bbburst-blur-1)"></use><use xlink:href="#bbburst-shape-6" width="33.96151307817223" opacity="0.5414501183973504" transform="matrix(0.9987786822609022,-0.049407933180571,0.049407933180571,0.9987786822609022,457.76114967209634,-182.11687672084255)" fill="#ff5c58" filter="url(#bbburst-blur-2)"></use><use xlink:href="#bbburst-shape-1" width="25.865836392457066" opacity="0.156870996192647" transform="matrix(1.0531067754498582,0.6733989304280207,-0.6733989304280207,1.0531067754498582,762.1892399312819,-394.07894915737234)" fill="#00a19d" filter="url(#bbburst-blur-3)"></use><use xlink:href="#bbburst-shape-8" width="39.38130222137383" opacity="0.2711337713451384" transform="matrix(1.1908833315001632,0.3798643057133327,-0.3798643057133327,1.1908833315001632,359.1826959446372,-364.7426344734085)" fill="none" stroke="#2c2891" filter="url(#bbburst-blur-3)"></use><use xlink:href="#bbburst-shape-6" width="23.21695594379206" opacity="0.18748835197545366" transform="matrix(1.0606562722600081,0.6614440808681438,-0.6614440808681438,1.0606562722600081,1017.765529981872,-41.67270601765699)" fill="#00a19d" filter="url(#bbburst-blur-3)"></use><use xlink:href="#bbburst-shape-6" width="42.87604457071341" opacity="-0.006465553669464663" transform="matrix(1.3847950799407314,-1.0699731709589464,1.0699731709589464,1.3847950799407314,-337.73547279755826,224.96130966854264)" fill="#ffa6d5" filter="url(#bbburst-blur-4)"></use><use xlink:href="#bbburst-shape-4" width="31.573687987862534" opacity="0.14388456036813724" transform="matrix(1.0768548222437637,0.6347311965000241,-0.6347311965000241,1.0768548222437637,997.9728469134446,-174.995252031716)" fill="#00a19d" filter="url(#bbburst-blur-3)"></use><use xlink:href="#bbburst-shape-6" width="37.797982878584634" opacity="0.42205026533453494" transform="matrix(0.9800036550103997,-0.19897948679765345,0.19897948679765345,0.9800036550103997,540.7638280235004,114.60985107070655)" fill="#ff5c58" filter="url(#bbburst-blur-2)"></use><use xlink:href="#bbburst-shape-1" width="28.08508718935955" opacity="0.2970761394466609" transform="matrix(1.2479117432563034,0.07222382600647968,-0.07222382600647968,1.2479117432563034,722.7494808358313,-44.50876168431182)" fill="#00a19d" filter="url(#bbburst-blur-3)"></use><use xlink:href="#bbburst-shape-8" width="14.284185326250181" opacity="0.938705998355468" transform="matrix(0.7642627693450688,0.6449049692729978,-0.6449049692729978,0.7642627693450688,679.2595371962313,82.98814898102165)" fill="none" stroke="#2c2891"></use><use xlink:href="#bbburst-shape-6" width="37.00608265323815" opacity="-0.07631383558510874" transform="matrix(1.72925173997048,0.2686790274827325,-0.2686790274827325,1.72925173997048,115.37748167530339,27.23626217446872)" fill="#ffbd9b" filter="url(#bbburst-blur-4)"></use><use xlink:href="#bbburst-shape-10" width="31.33125923237921" opacity="0.6427752777945621" transform="matrix(0.898024241590529,-0.4399459756785546,0.4399459756785546,0.898024241590529,151.39617972988395,197.38861272135858)" fill="none" stroke="#ffbd9b" filter="url(#bbburst-blur-1)"></use><use xlink:href="#bbburst-shape-10" width="26.309727756957194" opacity="0.14759348946106954" transform="matrix(1.2048770253364198,-0.33282330720137454,0.33282330720137454,1.2048770253364198,617.2748844742831,36.41750534203226)" fill="none" stroke="#ffbd9b" filter="url(#bbburst-blur-3)"></use><use xlink:href="#bbburst-shape-10" width="31.71961736440268" opacity="0.3748568201542509" transform="matrix(0.9898239343207003,0.14229750189616824,-0.14229750189616824,0.9898239343207003,159.96044345180752,-3.7125429583384175)" fill="none" stroke="#ff5c58" filter="url(#bbburst-blur-2)"></use><use xlink:href="#bbburst-shape-4" width="18.495745296935574" opacity="0.7482743049721897" transform="matrix(0.9441607759431275,0.3294850970385025,-0.3294850970385025,0.9441607759431275,622.2308049210665,74.0415157629676)" fill="#ff5c58" filter="url(#bbburst-blur-1)"></use><use xlink:href="#bbburst-shape-6" width="33.45944224114367" opacity="0.17885005887799654" transform="matrix(1.176984327146786,-0.4209606794592907,0.4209606794592907,1.176984327146786,468.80248617589564,-329.3769349584919)" fill="#00a19d" filter="url(#bbburst-blur-3)"></use><use xlink:href="#bbburst-shape-1" width="31.08260696349086" opacity="0.429020846609121" transform="matrix(0.8384743940667002,-0.5449409972597767,0.5449409972597767,0.8384743940667002,153.85805622996708,-183.38028923281217)" fill="#ffa6d5" filter="url(#bbburst-blur-2)"></use><use xlink:href="#bbburst-shape-6" width="35.58327378386658" opacity="0.06656938681886493" transform="matrix(1.7342480110318512,0.23427299509774474,-0.23427299509774474,1.7342480110318512,243.85544641154624,-656.30269549616)" fill="#00a19d" filter="url(#bbburst-blur-4)"></use><use xlink:href="#bbburst-shape-6" width="26.108340549330784" opacity="0.15734954780855115" transform="matrix(1.051333131541596,0.6761646593271062,-0.6761646593271062,1.051333131541596,291.19595029655517,71.45510449010362)" fill="#2c2891" filter="url(#bbburst-blur-3)"></use><use xlink:href="#bbburst-shape-10" width="14.330416621756564" opacity="0.8001711066385582" transform="matrix(0.9837900466449933,-0.17932413145542334,0.17932413145542334,0.9837900466449933,363.03100094803403,-71.84327709411752)" fill="none" stroke="#00a19d"></use><use xlink:href="#bbburst-shape-1" width="37.72654646268542" opacity="-0.08811952132927203" transform="matrix(1.6092246944548896,0.6876742562845924,-0.6876742562845924,1.6092246944548896,986.6499345229739,93.87074336261287)" fill="#00a19d" filter="url(#bbburst-blur-4)"></use><use xlink:href="#bbburst-shape-4" width="28.07495417889175" opacity="0.06833212168430991" transform="matrix(1.7101138250271362,0.37149792119345354,-0.37149792119345354,1.7101138250271362,735.8112841730142,72.9350509883916)" fill="#ff5c58" filter="url(#bbburst-blur-4)"></use><use xlink:href="#bbburst-shape-4" width="17.60756718784878" opacity="0.7014003953483727" transform="matrix(0.7289839532598552,0.6845307852022678,-0.6845307852022678,0.7289839532598552,748.3371691405541,-4.854652617689965)" fill="#ff5c58" filter="url(#bbburst-blur-1)"></use><use xlink:href="#bbburst-shape-6" width="34.08483751694268" opacity="0.3391370206497034" transform="matrix(0.9869751065999213,-0.16087305228680765,0.16087305228680765,0.9869751065999213,67.1897219409531,166.43476099670573)" fill="#2c2891" filter="url(#bbburst-blur-2)"></use><use xlink:href="#bbburst-shape-6" width="43.22054100004798" opacity="0.3012960773429312" transform="matrix(0.9820859793767946,0.7733092066641402,-0.7733092066641402,0.9820859793767946,953.3114337977388,-178.42665145840985)" fill="#ffa6d5" filter="url(#bbburst-blur-3)"></use><use xlink:href="#bbburst-shape-8" width="23.171177571450514" opacity="0.6135322754865548" transform="matrix(0.9998709478212017,-0.016065108251483714,0.016065108251483714,0.9998709478212017,469.30612474400647,150.63961385446356)" fill="none" stroke="#ffbd9b" filter="url(#bbburst-blur-1)"></use><use xlink:href="#bbburst-shape-4" width="29.54575987873902" opacity="0.50767614308489" transform="matrix(0.9967628253841011,0.08039819607618093,-0.08039819607618093,0.9967628253841011,232.5068566070785,-121.87104499765627)" fill="#2c2891" filter="url(#bbburst-blur-2)"></use><use xlink:href="#bbburst-shape-1" width="32.62276322669652" opacity="0.19454668744967296" transform="matrix(0.8931413592918427,-0.8745275938026882,0.8745275938026882,0.8931413592918427,-326.55870226274334,43.914342612197174)" fill="#2c2891" filter="url(#bbburst-blur-3)"></use><use xlink:href="#bbburst-shape-1" width="20.304248263296348" opacity="0.7325801628990407" transform="matrix(0.9829285063331034,0.18398791111856866,-0.18398791111856866,0.9829285063331034,343.54178045275034,-3.057451247901838)" fill="#2c2891" filter="url(#bbburst-blur-1)"></use><use xlink:href="#bbburst-shape-4" width="30.469069869094277" opacity="0.44919250330197913" transform="matrix(0.908675888740056,0.4175022505597657,-0.4175022505597657,0.908675888740056,389.57099587442497,216.41849594050768)" fill="#2c2891" filter="url(#bbburst-blur-2)"></use><use xlink:href="#bbburst-shape-10" width="17.580691048117128" opacity="0.6027822585578491" transform="matrix(0.8027385288560452,0.5963311615956626,-0.5963311615956626,0.8027385288560452,792.524554291991,151.21416488318113)" fill="none" stroke="#00a19d" filter="url(#bbburst-blur-1)"></use><use xlink:href="#bbburst-shape-4" width="36.8863614474783" opacity="0.33506383919727256" transform="matrix(0.923410957924694,0.38381271837264463,-0.38381271837264463,0.923410957924694,754.7394750622448,228.27495486791167)" fill="#00a19d" filter="url(#bbburst-blur-2)"></use><use xlink:href="#bbburst-shape-1" width="27.373295450790316" opacity="0.5469375416009621" transform="matrix(0.9906445176109222,-0.1364677241234102,0.1364677241234102,0.9906445176109222,533.4338440015575,-24.91506133291739)" fill="#ffa6d5" filter="url(#bbburst-blur-2)"></use><use xlink:href="#bbburst-shape-8" width="19.11930345451554" opacity="0.7950850206165517" transform="matrix(0.9754714737314588,0.22012588202248223,-0.22012588202248223,0.9754714737314588,393.45286568802305,42.80176308534942)" fill="none" stroke="#ffa6d5"></use><use xlink:href="#bbburst-shape-6" width="19.868844225235968" opacity="0.6527389557127656" transform="matrix(0.9580425529009156,-0.2866260051549693,0.2866260051549693,0.9580425529009156,426.9167102811347,-20.281225621071144)" fill="#ffa6d5" filter="url(#bbburst-blur-1)"></use><use xlink:href="#bbburst-shape-1" width="11.858451238893688" opacity="0.9209888135065862" transform="matrix(0.9944725280635353,0.10499709961194709,-0.10499709961194709,0.9944725280635353,460.01473455003463,27.914881504292396)" fill="#ffbd9b"></use><use xlink:href="#bbburst-shape-8" width="18.8156371723777" opacity="0.8573058007595722" transform="matrix(0.8795323753158701,-0.4758390492290679,0.4758390492290679,0.8795323753158701,157.5873279145475,5.710860556196735)" fill="none" stroke="#00a19d"></use><use xlink:href="#bbburst-shape-6" width="27.616681310886715" opacity="0.1794252248950755" transform="matrix(1.2172040923037195,-0.28445421016233585,0.28445421016233585,1.2172040923037195,232.33511765200922,284.4392041668849)" fill="#ff5c58" filter="url(#bbburst-blur-3)"></use><use xlink:href="#bbburst-shape-6" width="54.31711140492963" opacity="0.10513801864891337" transform="matrix(1.6281967973989815,-0.6414633184677828,0.6414633184677828,1.6281967973989815,-246.63299739761533,-27.555466220449716)" fill="#ffbd9b" filter="url(#bbburst-blur-4)"></use><use xlink:href="#bbburst-shape-10" width="19.398243853781903" opacity="0.6636437768683365" transform="matrix(0.945647043261226,-0.32519481787276555,0.32519481787276555,0.945647043261226,371.3668055243892,128.20982704721712)" fill="none" stroke="#2c2891" filter="url(#bbburst-blur-1)"></use><use xlink:href="#bbburst-shape-4" width="16.579805295871388" opacity="0.7451550364520568" transform="matrix(0.8194121476469016,-0.5732047908807918,0.5732047908807918,0.8194121476469016,160.69424205264158,-37.6351730973754)" fill="#00a19d" filter="url(#bbburst-blur-1)"></use><use xlink:href="#bbburst-shape-8" width="28.555925644398908" opacity="0.15980749087131063" transform="matrix(1.2171084697338295,-0.284863077463851,0.284863077463851,1.2171084697338295,172.74293531089654,-448.4893521236529)" fill="none" stroke="#ffa6d5" filter="url(#bbburst-blur-3)"></use><use xlink:href="#bbburst-shape-6" width="15.438687637241715" opacity="0.7259976509002306" transform="matrix(0.9360114609206808,0.35196952286402994,-0.35196952286402994,0.9360114609206808,640.5424029269954,-38.42734837141205)" fill="#ffbd9b" filter="url(#bbburst-blur-1)"></use><use xlink:href="#bbburst-shape-4" width="39.75050500761048" opacity="0.3681261783919296" transform="matrix(0.9624177208763051,-0.27157343489976793,0.27157343489976793,0.9624177208763051,346.1661186666578,295.03360238109326)" fill="#2c2891" filter="url(#bbburst-blur-2)"></use><use xlink:href="#bbburst-shape-10" width="21.454328565103697" opacity="0.5055880629468333" transform="matrix(0.7507797868623631,0.6605525805255057,-0.6605525805255057,0.7507797868623631,852.9479677377334,-11.210627991444312)" fill="none" stroke="#ffa6d5" filter="url(#bbburst-blur-2)"></use><use xlink:href="#bbburst-shape-6" width="47.75397839060244" opacity="0.0747319605978286" transform="matrix(1.7472343378359765,0.09834718443797251,-0.09834718443797251,1.7472343378359765,39.853785455988366,-514.2381095951785)" fill="#ffbd9b" filter="url(#bbburst-blur-4)"></use><use xlink:href="#bbburst-shape-10" width="15.079391438243066" opacity="0.9503523304817207" transform="matrix(0.9940756509051675,0.1086903872357971,-0.1086903872357971,0.9940756509051675,421.2709549839402,18.365460605512624)" fill="none" stroke="#ffbd9b"></use><use xlink:href="#bbburst-shape-8" width="32.96472581258588" opacity="0.22321394142110607" transform="matrix(1.0032829708483575,-0.7456026290227885,0.7456026290227885,1.0032829708483575,95.9485026185227,-338.41303039813)" fill="none" stroke="#ffbd9b" filter="url(#bbburst-blur-3)"></use><use xlink:href="#bbburst-shape-6" width="15.648229231047358" opacity="0.8532115885393843" transform="matrix(0.7079306113138629,0.7062819901178142,-0.7062819901178142,0.7079306113138629,686.4540219358519,176.67279793404163)" fill="#2c2891"></use><use xlink:href="#bbburst-shape-1" width="41.01156141939741" opacity="0.059396745972331466" transform="matrix(1.7422162555015341,0.1648712196419171,-0.1648712196419171,1.7422162555015341,782.026461004028,-535.5194570212198)" fill="#00a19d" filter="url(#bbburst-blur-4)"></use><use xlink:href="#bbburst-shape-4" width="37.13884541946266" opacity="0.0434370760861027" transform="matrix(1.5803602991737613,0.7516390921149723,-0.7516390921149723,1.5803602991737613,907.7036398592638,-605.764555319382)" fill="#ffa6d5" filter="url(#bbburst-blur-4)"></use><use xlink:href="#bbburst-shape-4" width="16.66667441481492" opacity="0.7930008657822362" transform="matrix(0.9699764591548977,-0.2431988254192997,0.2431988254192997,0.9699764591548977,384.3988691186188,-10.856464799321373)" fill="#2c2891"></use><use xlink:href="#bbburst-shape-6" width="17.206215014949763" opacity="0.945473910385154" transform="matrix(0.9854502533869928,0.1699641082685155,-0.1699641082685155,0.9854502533869928,444.6982097261571,-15.205652609476829)" fill="#ff5c58"></use><use xlink:href="#bbburst-shape-4" width="43.66099279957799" opacity="0.24265058015455832" transform="matrix(1.1023045668114475,0.5894273848292316,-0.5894273848292316,1.1023045668114475,909.1082309434785,112.65204428999346)" fill="#00a19d" filter="url(#bbburst-blur-3)"></use><use xlink:href="#bbburst-shape-6" width="28.977691963954772" opacity="0.4015199555594148" transform="matrix(0.8911513599210924,-0.453706131445,0.453706131445,0.8911513599210924,24.759653900689216,-149.450436697679)" fill="#ffa6d5" filter="url(#bbburst-blur-2)"></use><use xlink:href="#bbburst-shape-8" width="31.451534691014828" opacity="0.3661256178083462" transform="matrix(0.9989811098847735,-0.04513027911930182,0.04513027911930182,0.9989811098847735,531.5175391991947,-231.36190905050856)" fill="none" stroke="#2c2891" filter="url(#bbburst-blur-2)"></use><use xlink:href="#bbburst-shape-1" width="22.32233476771888" opacity="0.5632797697683278" transform="matrix(0.9971810262262267,-0.07503333215584439,0.07503333215584439,0.9971810262262267,376.83711501063965,-193.7063359357612)" fill="#ff5c58" filter="url(#bbburst-blur-1)"></use><use xlink:href="#bbburst-shape-6" width="33.124951110994445" opacity="0.22695981365685114" transform="matrix(1.178420260938767,-0.4169240801501015,0.4169240801501015,1.178420260938767,372.9945396993773,-373.7220707263503)" fill="#2c2891" filter="url(#bbburst-blur-3)"></use><use xlink:href="#bbburst-shape-10" width="19.707659581243327" opacity="0.6754177114779243" transform="matrix(0.9808880035376634,-0.19457318550071798,0.19457318550071798,0.9808880035376634,353.3578560082559,-130.67048929175866)" fill="none" stroke="#2c2891" filter="url(#bbburst-blur-1)"></use><use xlink:href="#bbburst-shape-8" width="23.10129316916448" opacity="0.62576378433736" transform="matrix(0.9581155934596999,-0.2863817549519646,0.2863817549519646,0.9581155934596999,160.91136761969364,144.50220755004278)" fill="none" stroke="#ffa6d5" filter="url(#bbburst-blur-1)"></use><use xlink:href="#bbburst-shape-8" width="26.086786640717733" opacity="0.7088213718938607" transform="matrix(0.9353426531794006,-0.353743015681327,0.353743015681327,0.9353426531794006,376.5757444882545,44.544885871315444)" fill="none" stroke="#2c2891" filter="url(#bbburst-blur-1)"></use><use xlink:href="#bbburst-shape-4" width="31.07037304137298" opacity="0.3204153834184241" transform="matrix(0.9267749745810288,-0.8388016133093292,0.8388016133093292,0.9267749745810288,-31.758863013668247,-252.30500348973715)" fill="#ffbd9b" filter="url(#bbburst-blur-3)"></use><use xlink:href="#bbburst-shape-10" width="40.92077169666403" opacity="0.3197985089652047" transform="matrix(1.131669915353131,-0.5308702314922517,0.5308702314922517,1.131669915353131,10.13609970587575,222.51195644385285)" fill="none" stroke="#ff5c58" filter="url(#bbburst-blur-3)"></use><use xlink:href="#bbburst-shape-8" width="35.21182440470593" opacity="0.04440865842656849" transform="matrix(1.7056149356840054,0.39163463990260944,-0.39163463990260944,1.7056149356840054,885.4479996825075,-52.16028941306399)" fill="none" stroke="#2c2891" filter="url(#bbburst-blur-4)"></use><use xlink:href="#bbburst-shape-8" width="17.52629393372077" opacity="0.7720826887903026" transform="matrix(0.9004787644619691,-0.43489998247073497,0.43489998247073497,0.9004787644619691,197.70873338659914,144.12492341724243)" fill="none" stroke="#ffbd9b" filter="url(#bbburst-blur-1)"></use><use xlink:href="#bbburst-shape-10" width="35.14261284739976" opacity="0.31380518159633775" transform="matrix(1.1912627574872652,0.3786727381576832,-0.3786727381576832,1.1912627574872652,232.49457813621308,-2.409239106923735)" fill="none" stroke="#2c2891" filter="url(#bbburst-blur-3)"></use><use xlink:href="#bbburst-shape-6" width="23.11920572703337" opacity="0.42130575888859423" transform="matrix(0.9863746047734875,-0.16451485968734378,0.16451485968734378,0.9863746047734875,583.0877094791412,15.147492382342136)" fill="#00a19d" filter="url(#bbburst-blur-2)"></use><use xlink:href="#bbburst-shape-4" width="28.998082191728333" opacity="0.4480486137528049" transform="matrix(0.9998361331000156,-0.018102677912615026,0.018102677912615026,0.9998361331000156,510.3425213862956,210.70311762859302)" fill="#ff5c58" filter="url(#bbburst-blur-2)"></use><use xlink:href="#bbburst-shape-10" width="15.987773822473542" opacity="0.8384736713282628" transform="matrix(0.7595809602375277,-0.6504127649766994,0.6504127649766994,0.7595809602375277,205.55823573504784,112.71616845405549)" fill="none" stroke="#2c2891"></use><use xlink:href="#bbburst-shape-6" width="19.6906766955712" opacity="0.7416380717881133" transform="matrix(0.9381264804879027,0.346292804729438,-0.346292804729438,0.9381264804879027,471.61227795878415,-79.6121733753389)" fill="#ffa6d5" filter="url(#bbburst-blur-1)"></use><use xlink:href="#bbburst-shape-8" width="12.958965480769493" opacity="0.8407245756450705" transform="matrix(0.9871099518578856,-0.16004356576608336,0.16004356576608336,0.9871099518578856,318.02838743330267,-64.54283680578385)" fill="none" stroke="#00a19d"></use><use xlink:href="#bbburst-shape-4" width="29.304537531913244" opacity="0.18069738221153464" transform="matrix(1.2177628165264478,-0.2820526948738005,0.2820526948738005,1.2177628165264478,349.4445964788066,276.9395390346879)" fill="#00a19d" filter="url(#bbburst-blur-3)"></use><use xlink:href="#bbburst-shape-1" width="40.19392241380398" opacity="0.20152636821262015" transform="matrix(1.117999205242592,0.559086555979423,-0.559086555979423,1.117999205242592,352.16496059882877,200.69508881618674)" fill="#ff5c58" filter="url(#bbburst-blur-3)"></use><use xlink:href="#bbburst-shape-1" width="18.75615048192946" opacity="0.8655342067213406" transform="matrix(0.9996209581166791,-0.027530711830475414,0.027530711830475414,0.9996209581166791,343.4488979497302,48.94694993740427)" fill="#ffa6d5"></use><use xlink:href="#bbburst-shape-6" width="27.22311892379847" opacity="0.28077249496020984" transform="matrix(1.2031134780837442,-0.3391429770070965,0.3391429770070965,1.2031134780837442,563.4455275932473,-148.90568224285215)" fill="#ffa6d5" filter="url(#bbburst-blur-3)"></use><use xlink:href="#bbburst-shape-4" width="32.42385781108876" opacity="0.3068540393048622" transform="matrix(0.9074712719633349,0.8596487018318861,-0.8596487018318861,0.9074712719633349,465.3703913563363,-143.41072627928943)" fill="#ffbd9b" filter="url(#bbburst-blur-3)"></use><use xlink:href="#bbburst-shape-4" width="31.39178152208969" opacity="0.5487964176400804" transform="matrix(0.9951128853254986,-0.09874383757562352,0.09874383757562352,0.9951128853254986,333.01228073712133,206.22720230920095)" fill="#00a19d" filter="url(#bbburst-blur-2)"></use><use xlink:href="#bbburst-shape-4" width="39.50359962200943" opacity="0.15482711050359432" transform="matrix(1.2470876933142556,0.08527769452869342,-0.08527769452869342,1.2470876933142556,137.94097265726987,-366.7793092735403)" fill="#ff5c58" filter="url(#bbburst-blur-3)"></use><use xlink:href="#bbburst-shape-4" width="22.787282553158192" opacity="0.6223534050511811" transform="matrix(0.9977997678125345,-0.06629949738310277,0.06629949738310277,0.9977997678125345,202.05455514458566,-55.451136901281814)" fill="#ffbd9b" filter="url(#bbburst-blur-1)"></use><use xlink:href="#bbburst-shape-1" width="26.662259615412204" opacity="0.6272886379409354" transform="matrix(0.9486654897711908,0.31628118584131215,-0.31628118584131215,0.9486654897711908,472.37143111642763,-146.15897468033316)" fill="#ffa6d5" filter="url(#bbburst-blur-1)"></use><use xlink:href="#bbburst-shape-6" width="46.10492303086104" opacity="-0.08684297565694843" transform="matrix(1.4272299496556653,1.0126769824607882,-1.0126769824607882,1.4272299496556653,1119.0151728244864,-539.0495204179546)" fill="#00a19d" filter="url(#bbburst-blur-4)"></use><use xlink:href="#bbburst-shape-1" width="28.372806779728236" opacity="0.4762714209039913" transform="matrix(0.9054484165700907,-0.4244563168698464,0.4244563168698464,0.9054484165700907,124.61985215302232,-172.7768650222932)" fill="#ffa6d5" filter="url(#bbburst-blur-2)"></use><use xlink:href="#bbburst-shape-10" width="23.512556253895436" opacity="0.4153543073982908" transform="matrix(0.9873491734022278,-0.15856106010599624,0.15856106010599624,0.9873491734022278,577.3874995281094,-67.24458252823172)" fill="none" stroke="#00a19d" filter="url(#bbburst-blur-2)"></use><use xlink:href="#bbburst-shape-4" width="29.27149367844331" opacity="0.5842974910236627" transform="matrix(0.9213713906332025,-0.3886833679521655,0.3886833679521655,0.9213713906332025,118.29483100184854,-112.09879034199128)" fill="#ff5c58" filter="url(#bbburst-blur-1)"></use><use xlink:href="#bbburst-shape-8" width="41.7007576269733" opacity="0.14019039460842553" transform="matrix(1.1200195532582575,-0.5550281076839021,0.5550281076839021,1.1200195532582575,422.41225299155735,242.84688453478753)" fill="none" stroke="#00a19d" filter="url(#bbburst-blur-3)"></use><use xlink:href="#bbburst-shape-4" width="19.28765336608825" opacity="0.7809047975069647" transform="matrix(0.9547571179372811,0.29738669396611644,-0.29738669396611644,0.9547571179372811,423.2418518797136,-32.06464881528001)" fill="#ffa6d5"></use><use xlink:href="#bbburst-shape-6" width="46.18370572665678" opacity="-0.08021046301692203" transform="matrix(1.2874986509286936,1.1852625126345613,-1.1852625126345613,1.2874986509286936,499.5073133988645,-484.9402470044071)" fill="#ff5c58" filter="url(#bbburst-blur-4)"></use><use xlink:href="#bbburst-shape-10" width="16.31437917681149" opacity="0.856312090108788" transform="matrix(0.9520607309520461,0.3059090789418577,-0.3059090789418577,0.9520607309520461,567.4718049105062,-20.537453456253388)" fill="none" stroke="#ffbd9b"></use><use xlink:href="#bbburst-shape-4" width="20.23898307676569" opacity="0.8336886524171888" transform="matrix(0.838501744476167,-0.5448989121942021,0.5448989121942021,0.838501744476167,227.2273036877394,122.29606245054953)" fill="#2c2891"></use><use xlink:href="#bbburst-shape-4" width="31.063465648006076" opacity="0.43445754553092075" transform="matrix(0.743351457056431,-0.6689010474592494,0.6689010474592494,0.743351457056431,-122.96814261826279,40.341996951184115)" fill="#00a19d" filter="url(#bbburst-blur-2)"></use><use xlink:href="#bbburst-shape-6" width="19.541606496847688" opacity="0.8683959124102922" transform="matrix(0.9181748030526754,-0.3961755053498142,0.3961755053498142,0.9181748030526754,173.38504274425657,34.210006347564274)" fill="#2c2891"></use><use xlink:href="#bbburst-shape-8" width="23.964497149999378" opacity="0.4869997243717058" transform="matrix(0.9939938368198666,-0.10943606518931655,0.10943606518931655,0.9939938368198666,121.37003576338634,63.60693380968365)" fill="none" stroke="#ffa6d5" filter="url(#bbburst-blur-2)"></use><use xlink:href="#bbburst-shape-6" width="25.593344484016136" opacity="0.5637537452010947" transform="matrix(0.9035762224893545,-0.42842736858406755,0.42842736858406755,0.9035762224893545,410.50128185388473,77.53195065541945)" fill="#2c2891" filter="url(#bbburst-blur-1)"></use><use xlink:href="#bbburst-shape-1" width="27.94727276071597" opacity="0.481162973209433" transform="matrix(0.9732021983982736,0.2299510405124695,-0.2299510405124695,0.9732021983982736,397.4107757013558,226.53058719449007)" fill="#2c2891" filter="url(#bbburst-blur-2)"></use><use xlink:href="#bbburst-shape-10" width="22.789157101054244" opacity="0.6139844657815805" transform="matrix(0.9796872962650707,0.20053129814778461,-0.20053129814778461,0.9796872962650707,601.2555889065876,-106.83480280419417)" fill="none" stroke="#00a19d" filter="url(#bbburst-blur-1)"></use><use xlink:href="#bbburst-shape-10" width="29.11751527795694" opacity="0.2806286388397965" transform="matrix(1.0760230602030318,-0.6361402156060426,0.6361402156060426,1.0760230602030318,41.11841351130181,290.1630243533123)" fill="none" stroke="#ffbd9b" filter="url(#bbburst-blur-3)"></use><use xlink:href="#bbburst-shape-4" width="15.62855029457203" opacity="0.896479340504772" transform="matrix(0.9898224459893509,-0.14230785437093257,0.14230785437093257,0.9898224459893509,350.3932360804288,-38.889410131785155)" fill="#ffa6d5"></use><use xlink:href="#bbburst-shape-6" width="24.99179274485532" opacity="0.5076526362036402" transform="matrix(0.7429555682788548,0.6693407380127433,-0.6693407380127433,0.7429555682788548,827.461639569864,237.71251600995902)" fill="#ffa6d5" filter="url(#bbburst-blur-2)"></use><use xlink:href="#bbburst-shape-6" width="23.029354454992305" opacity="0.7527670391347671" transform="matrix(0.9928994008343734,0.11895705032801611,-0.11895705032801611,0.9928994008343734,486.2617420575765,100.80067764934353)" fill="#00a19d" filter="url(#bbburst-blur-1)"></use><use xlink:href="#bbburst-shape-10" width="25.643846623741048" opacity="0.46246601233872053" transform="matrix(0.7274906615485202,0.6861175827507239,-0.6861175827507239,0.7274906615485202,840.560659757723,-66.3205183482352)" fill="none" stroke="#ffa6d5" filter="url(#bbburst-blur-2)"></use><use xlink:href="#bbburst-shape-10" width="27.83876283981119" opacity="0.3688645584046455" transform="matrix(0.9999037930386893,0.01387100093151213,-0.01387100093151213,0.9999037930386893,386.55224798705103,283.81095394240685)" fill="none" stroke="#2c2891" filter="url(#bbburst-blur-2)"></use><use xlink:href="#bbburst-shape-10" width="23.011329988702748" opacity="0.7534922683147398" transform="matrix(0.9532406981704067,0.30221212972280864,-0.30221212972280864,0.9532406981704067,437.23011592400394,99.02225078436749)" fill="none" stroke="#ff5c58" filter="url(#bbburst-blur-1)"></use><use xlink:href="#bbburst-shape-6" width="35.08668225554912" opacity="0.38638469323501534" transform="matrix(0.9266433746992632,-0.3759415594556699,0.3759415594556699,0.9266433746992632,305.0826316835804,-230.7130536269093)" fill="#2c2891" filter="url(#bbburst-blur-2)"></use><use xlink:href="#bbburst-shape-4" width="30.915445236670685" opacity="0.5346930773276969" transform="matrix(0.9816398912439889,-0.19074360780505795,0.19074360780505795,0.9816398912439889,131.1637086096647,121.5997740236457)" fill="#00a19d" filter="url(#bbburst-blur-2)"></use><use xlink:href="#bbburst-shape-8" width="39.25637151193696" opacity="0.26264285057496584" transform="matrix(1.172036077475146,-0.4345473887813316,0.4345473887813316,1.172036077475146,364.00274317342087,229.94441024778746)" fill="none" stroke="#2c2891" filter="url(#bbburst-blur-3)"></use><use xlink:href="#bbburst-shape-1" width="19.85286159073562" opacity="0.6822912237499392" transform="matrix(0.7674606408944096,0.6410960650931669,-0.6410960650931669,0.7674606408944096,663.2638450935057,228.90738717654523)" fill="#00a19d" filter="url(#bbburst-blur-1)"></use><use xlink:href="#bbburst-shape-6" width="35.645443186726546" opacity="0.1195253913653852" transform="matrix(1.1147135017001142,0.565609237130609,-0.565609237130609,1.1147135017001142,432.8407808917883,300.2234179932911)" fill="#2c2891" filter="url(#bbburst-blur-3)"></use><use xlink:href="#bbburst-shape-4" width="22.64665378777624" opacity="0.5325898996736967" transform="matrix(0.998685072111999,0.05126525861293833,-0.05126525861293833,0.998685072111999,462.1278441399967,203.53146878555827)" fill="#2c2891" filter="url(#bbburst-blur-2)"></use></svg>