<svg xmlns="http://www.w3.org/2000/svg" xmlns:xlink="http://www.w3.org/1999/xlink" viewBox="0 0 800 800"><defs><symbol id="a" viewBox="0 0 194 167"><path d="m97 0 96.129 166.5H.871L97 0Z"/></symbol><symbol id="i" viewBox="0 0 149 143"><path d="M71.647 2.781c.898-2.764 4.808-2.764 5.706 0l15.445 47.534a3 3 0 0 0 2.853 2.073h49.98c2.906 0 4.115 3.719 1.764 5.427L106.96 87.193a2.999 2.999 0 0 0-1.09 3.354l15.445 47.534c.898 2.764-2.266 5.062-4.617 3.354l-40.435-29.378a3 3 0 0 0-3.526 0l-40.435 29.378c-2.351 1.708-5.515-.59-4.617-3.354L43.13 90.547a3 3 0 0 0-1.09-3.354L1.605 57.815c-2.35-1.708-1.142-5.427 1.764-5.427h49.98a3 3 0 0 0 2.853-2.073L71.647 2.781Z"/></symbol><symbol id="f" viewBox="0 0 133 116"><path d="M59.749 10.251c-13.669-13.668-35.83-13.668-49.498 0-13.668 13.669-13.668 35.83 0 49.498L59.75 10.25ZM66.5 66.5 41.751 91.249 66.5 115.997l24.749-24.748L66.5 66.5Zm56.249-6.751c13.668-13.669 13.668-35.83 0-49.498-13.669-13.668-35.83-13.668-49.498 0L122.75 59.75Zm-112.498 0 31.5 31.5L91.25 41.75l-31.5-31.5L10.25 59.75Zm80.998 31.5 31.5-31.5L73.251 10.25l-31.5 31.5L91.25 91.25Z"/></symbol><symbol id="e" viewBox="0 0 87 168"><path stroke-linecap="round" stroke-linejoin="round" stroke-width="14" d="m12 12 31.255 18.075c16.41 9.49 20.014 31.632 7.46 45.837L36.33 92.188c-12.569 14.221-8.94 36.392 7.506 45.864L75 156"/></symbol><symbol id="c" viewBox="0 0 145 145"><circle cx="72.5" cy="72.5" r="61.5" fill="none" stroke-width="22"/></symbol><filter id="d" width="400%" height="400%" x="-100%" y="-100%"><feGaussianBlur in="SourceGraphic" stdDeviation="1"/></filter><filter id="g" width="400%" height="400%" x="-100%" y="-100%"><feGaussianBlur in="SourceGraphic" stdDeviation="2"/></filter><filter id="b" width="400%" height="400%" x="-100%" y="-100%"><feGaussianBlur in="SourceGraphic" stdDeviation="4"/></filter><filter id="h" width="400%" height="400%" x="-100%" y="-100%"><feGaussianBlur in="SourceGraphic" stdDeviation="12"/></filter></defs><use xlink:href="#a" width="35.961" fill="#2c2891" filter="url(#b)" opacity=".202" transform="rotate(-32.604 -313.581 337.336) scale(1.25)"/><use xlink:href="#c" width="21.506" fill="none" stroke="#ff5c58" filter="url(#d)" opacity=".668" transform="rotate(-10.765 410.305 -896.427)"/><use xlink:href="#c" width="23.803" fill="none" stroke="#00a19d" filter="url(#d)" opacity=".676" transform="rotate(34.308 296.745 798.75)"/><use xlink:href="#e" width="31.518" fill="none" stroke="#00a19d" filter="url(#d)" opacity=".575" transform="rotate(-24.453 105.38 -46.624)"/><use xlink:href="#f" width="33.962" fill="#ff5c58" filter="url(#g)" opacity=".541" transform="rotate(-2.832 -3454.853 -9350.333)"/><use xlink:href="#a" width="25.866" fill="#00a19d" filter="url(#b)" opacity=".157" transform="rotate(32.596 1054.994 1106.35) scale(1.25)"/><use xlink:href="#e" width="39.381" fill="none" stroke="#2c2891" filter="url(#b)" opacity=".271" transform="rotate(17.691 1351.45 971.624) scale(1.25)"/><use xlink:href="#f" width="23.217" fill="#00a19d" filter="url(#b)" opacity=".187" transform="rotate(31.948 581.671 1756.87) scale(1.25)"/><use xlink:href="#f" width="42.876" fill="#ffa6d5" filter="url(#h)" opacity="-.006" transform="rotate(-37.692 160.677 607.227) scale(1.75)"/><use xlink:href="#i" width="31.574" fill="#00a19d" filter="url(#b)" opacity=".144" transform="rotate(30.516 819.743 1741.732) scale(1.25)"/><use xlink:href="#f" width="37.798" fill="#ff5c58" filter="url(#g)" opacity=".422" transform="rotate(-11.477 840.611 -2633.21)"/><use xlink:href="#a" width="28.085" fill="#00a19d" filter="url(#b)" opacity=".297" transform="rotate(3.312 1131.058 12476.145) scale(1.25)"/><use xlink:href="#e" width="14.284" fill="none" stroke="#2c2891" opacity=".939" transform="rotate(40.159 226.115 970.617)"/><use xlink:href="#f" width="37.006" fill="#ffbd9b" filter="url(#h)" opacity="-.076" transform="rotate(8.832 -118.659 760.657) scale(1.75)"/><use xlink:href="#c" width="31.331" fill="none" stroke="#ffbd9b" filter="url(#d)" opacity=".643" transform="rotate(-26.1 501.487 -227.884)"/><use xlink:href="#c" width="26.31" fill="none" stroke="#ffbd9b" filter="url(#b)" opacity=".148" transform="rotate(-15.442 442.944 -2258.275) scale(1.25)"/><use xlink:href="#c" width="31.72" fill="none" stroke="#ff5c58" filter="url(#g)" opacity=".375" transform="rotate(8.181 105.937 1116.551)"/><use xlink:href="#i" width="18.496" fill="#ff5c58" filter="url(#d)" opacity=".748" transform="rotate(19.238 92.67 1872.79)"/><use xlink:href="#f" width="33.459" fill="#00a19d" filter="url(#b)" opacity=".179" transform="rotate(-19.68 -715.085 -1516.093) scale(1.25)"/><use xlink:href="#a" width="31.083" fill="#ffa6d5" filter="url(#g)" opacity=".429" transform="rotate(-33.021 -232.407 -351.227)"/><use xlink:href="#f" width="35.583" fill="#00a19d" filter="url(#h)" opacity=".067" transform="rotate(7.693 5002.39 1485.23) scale(1.75)"/><use xlink:href="#f" width="26.108" fill="#2c2891" filter="url(#b)" opacity=".157" transform="rotate(32.747 23.999 531.272) scale(1.25)"/><use xlink:href="#c" width="14.33" fill="none" stroke="#00a19d" opacity=".8" transform="rotate(-10.33 -215.871 -2043.954)"/><use xlink:href="#a" width="37.727" fill="#00a19d" filter="url(#h)" opacity="-.088" transform="rotate(23.139 264.05 2456.782) scale(1.75)"/><use xlink:href="#i" width="28.075" fill="#ff5c58" filter="url(#h)" opacity=".068" transform="rotate(12.256 28.249 3463.123) scale(1.75)"/><use xlink:href="#i" width="17.608" fill="#ff5c58" filter="url(#d)" opacity=".701" transform="rotate(43.199 380.3 942.646)"/><use xlink:href="#f" width="34.085" fill="#2c2891" filter="url(#g)" opacity=".339" transform="rotate(-9.258 1061.43 -331.72)"/><use xlink:href="#f" width="43.221" fill="#ffa6d5" filter="url(#b)" opacity=".301" transform="rotate(38.217 734.162 1286.61) scale(1.25)"/><use xlink:href="#e" width="23.171" fill="none" stroke="#ffbd9b" filter="url(#d)" opacity=".614" transform="rotate(-.921 9610.867 -29135.554)"/><use xlink:href="#i" width="29.546" fill="#2c2891" filter="url(#g)" opacity=".508" transform="rotate(4.611 1629.643 2826.325)"/><use xlink:href="#a" width="32.623" fill="#2c2891" filter="url(#b)" opacity=".195" transform="rotate(-44.397 -109.47 422.094) scale(1.25)"/><use xlink:href="#a" width="20.304" fill="#2c2891" filter="url(#d)" opacity=".733" transform="rotate(10.602 188.247 1849.73)"/><use xlink:href="#i" width="30.469" fill="#2c2891" filter="url(#g)" opacity=".449" transform="rotate(24.677 -299.91 998.701)"/><use xlink:href="#c" width="17.581" fill="none" stroke="#00a19d" filter="url(#d)" opacity=".603" transform="rotate(36.608 167.698 1273.528)"/><use xlink:href="#i" width="36.886" fill="#00a19d" filter="url(#g)" opacity=".335" transform="rotate(22.57 -194.61 2005.26)"/><use xlink:href="#a" width="27.373" fill="#ffa6d5" filter="url(#g)" opacity=".547" transform="rotate(-7.843 85 -3903.037)"/><use xlink:href="#e" width="19.119" fill="none" stroke="#ffa6d5" opacity=".795" transform="rotate(12.716 4.669 1786.88)"/><use xlink:href="#f" width="19.869" fill="#ffa6d5" filter="url(#d)" opacity=".653" transform="rotate(-16.656 144.184 -1468.35)"/><use xlink:href="#a" width="11.858" fill="#ffbd9b" opacity=".921" transform="rotate(6.027 -35.121 4383.063)"/><use xlink:href="#e" width="18.816" fill="none" stroke="#00a19d" opacity=".857" transform="rotate(-28.414 90.072 -308.374)"/><use xlink:href="#f" width="27.617" fill="#ff5c58" filter="url(#b)" opacity=".179" transform="rotate(-13.154 1349.705 -865.356) scale(1.25)"/><use xlink:href="#f" width="54.317" fill="#ffbd9b" filter="url(#h)" opacity=".105" transform="rotate(-21.503 -195.875 635.655) scale(1.75)"/><use xlink:href="#c" width="19.398" fill="none" stroke="#2c2891" filter="url(#d)" opacity=".664" transform="rotate(-18.977 569.224 -1046.843)"/><use xlink:href="#i" width="16.58" fill="#00a19d" filter="url(#d)" opacity=".745" transform="rotate(-34.974 20.618 -273.848)"/><use xlink:href="#e" width="28.556" fill="none" stroke="#ffa6d5" filter="url(#b)" opacity=".16" transform="rotate(-13.173 -1855.74 -972.28) scale(1.25)"/><use xlink:href="#f" width="15.439" fill="#ffbd9b" filter="url(#d)" opacity=".726" transform="rotate(20.608 425.956 1742.44)"/><use xlink:href="#i" width="39.751" fill="#2c2891" filter="url(#g)" opacity=".368" transform="rotate(-15.758 1239.055 -1103.2)"/><use xlink:href="#c" width="21.454" fill="none" stroke="#ffa6d5" filter="url(#g)" opacity=".506" transform="rotate(41.342 441.33 1124.754)"/><use xlink:href="#f" width="47.754" fill="#ffbd9b" filter="url(#h)" opacity=".075" transform="rotate(3.222 9163.103 451.483) scale(1.75)"/><use xlink:href="#c" width="15.079" fill="none" stroke="#ffbd9b" opacity=".95" transform="rotate(6.24 42.166 3873.582)"/><use xlink:href="#e" width="32.965" fill="none" stroke="#ffbd9b" filter="url(#b)" opacity=".223" transform="rotate(-36.618 -463.384 -314.19) scale(1.25)"/><use xlink:href="#f" width="15.648" fill="#2c2891" opacity=".853" transform="rotate(44.933 129.612 918.328)"/><use xlink:href="#a" width="41.012" fill="#00a19d" filter="url(#h)" opacity=".059" transform="rotate(5.406 6062.56 8014.479) scale(1.75)"/><use xlink:href="#i" width="37.139" fill="#ffa6d5" filter="url(#h)" opacity=".043" transform="rotate(25.436 1795.862 1708.043) scale(1.75)"/><use xlink:href="#i" width="16.667" fill="#2c2891" opacity=".793" transform="rotate(-14.075 148.23 -1562.296)"/><use xlink:href="#f" width="17.206" fill="#ff5c58" opacity=".945" transform="rotate(9.786 311.162 2589.787)"/><use xlink:href="#i" width="43.661" fill="#00a19d" filter="url(#b)" opacity=".243" transform="rotate(28.134 229.767 1870.374) scale(1.25)"/><use xlink:href="#f" width="28.978" fill="#ffa6d5" filter="url(#g)" opacity=".402" transform="rotate(-26.982 -299.092 -126.327)"/><use xlink:href="#e" width="31.452" fill="none" stroke="#2c2891" filter="url(#g)" opacity=".366" transform="rotate(-2.587 -4858.164 -11887.085)"/><use xlink:href="#a" width="22.322" fill="#ff5c58" filter="url(#d)" opacity=".563" transform="rotate(-4.303 -2389.547 -5112.037)"/><use xlink:href="#f" width="33.125" fill="#2c2891" filter="url(#b)" opacity=".227" transform="rotate(-19.484 -901.895 -1273.135) scale(1.25)"/><use xlink:href="#c" width="19.708" fill="none" stroke="#2c2891" filter="url(#d)" opacity=".675" transform="rotate(-11.22 -488.479 -1864.047)"/><use xlink:href="#e" width="23.101" fill="none" stroke="#ffa6d5" filter="url(#d)" opacity=".626" transform="rotate(-16.641 574.468 -477.86)"/><use xlink:href="#e" width="26.087" fill="none" stroke="#2c2891" filter="url(#d)" opacity=".709" transform="rotate(-20.716 310.141 -1007.858)"/><use xlink:href="#i" width="31.07" fill="#ffbd9b" filter="url(#b)" opacity=".32" transform="rotate(-42.147 -343.258 -84.944) scale(1.25)"/><use xlink:href="#c" width="40.921" fill="none" stroke="#ff5c58" filter="url(#b)" opacity=".32" transform="rotate(-25.131 504.201 88.519) scale(1.25)"/><use xlink:href="#e" width="35.212" fill="none" stroke="#2c2891" filter="url(#h)" opacity=".044" transform="rotate(12.932 672.844 3880.325) scale(1.75)"/><use xlink:href="#e" width="17.526" fill="none" stroke="#ffbd9b" filter="url(#d)" opacity=".772" transform="rotate(-25.779 413.762 -359.923)"/><use xlink:href="#c" width="35.143" fill="none" stroke="#2c2891" filter="url(#b)" opacity=".314" transform="rotate(17.634 124.013 748.23) scale(1.25)"/><use xlink:href="#f" width="23.119" fill="#00a19d" filter="url(#g)" opacity=".421" transform="rotate(-9.469 382.99 -3512.566)"/><use xlink:href="#i" width="28.998" fill="#ff5c58" filter="url(#g)" opacity=".448" transform="rotate(-1.037 11893.552 -28083.887)"/><use xlink:href="#c" width="15.988" fill="none" stroke="#2c2891" opacity=".838" transform="rotate(-40.573 255.246 -221.693)"/><use xlink:href="#f" width="19.691" fill="#ffa6d5" filter="url(#d)" opacity=".742" transform="rotate(20.261 458.592 1279.95)"/><use xlink:href="#e" width="12.959" fill="none" stroke="#00a19d" opacity=".841" transform="rotate(-9.209 -241.67 -2006.6)"/><use xlink:href="#i" width="29.305" fill="#00a19d" filter="url(#b)" opacity=".181" transform="rotate(-13.041 1386.235 -1390.228) scale(1.25)"/><use xlink:href="#a" width="40.194" fill="#ff5c58" filter="url(#b)" opacity=".202" transform="rotate(26.569 -248.937 846.141) scale(1.25)"/><use xlink:href="#a" width="18.756" fill="#ffa6d5" opacity=".866" transform="rotate(-1.578 1949.291 -12448.28)"/><use xlink:href="#f" width="27.223" fill="#ffa6d5" filter="url(#b)" opacity=".281" transform="rotate(-15.742 -256.815 -2112.23) scale(1.25)"/><use xlink:href="#i" width="32.424" fill="#ffbd9b" filter="url(#b)" opacity=".307" transform="rotate(43.45 412.645 512.268) scale(1.25)"/><use xlink:href="#i" width="31.392" fill="#00a19d" filter="url(#g)" opacity=".549" transform="rotate(-5.667 2249.91 -3261.132)"/><use xlink:href="#i" width="39.504" fill="#ff5c58" filter="url(#b)" opacity=".155" transform="rotate(3.912 5438.957 1836.193) scale(1.25)"/><use xlink:href="#i" width="22.787" fill="#ffbd9b" filter="url(#d)" opacity=".622" transform="rotate(-3.801 -734.426 -3071.976)"/><use xlink:href="#a" width="26.662" fill="#ffa6d5" filter="url(#d)" opacity=".627" transform="rotate(18.438 686.442 1382.103)"/><use xlink:href="#f" width="46.105" fill="#00a19d" filter="url(#h)" opacity="-.087" transform="rotate(35.357 1405.13 1485.906) scale(1.75)"/><use xlink:href="#a" width="28.373" fill="#ffa6d5" filter="url(#g)" opacity=".476" transform="rotate(-25.116 -325.5 -366.107)"/><use xlink:href="#c" width="23.513" fill="none" stroke="#00a19d" filter="url(#g)" opacity=".415" transform="rotate(-9.123 -132.716 -3652.01)"/><use xlink:href="#i" width="29.271" fill="#ff5c58" filter="url(#d)" opacity=".584" transform="rotate(-22.873 -217.92 -348.432)"/><use xlink:href="#e" width="41.701" fill="none" stroke="#00a19d" filter="url(#b)" opacity=".14" transform="rotate(-26.361 729.695 -780.446) scale(1.25)"/><use xlink:href="#i" width="19.288" fill="#ffa6d5" opacity=".781" transform="rotate(17.301 317.003 1374.976)"/><use xlink:href="#f" width="46.184" fill="#ff5c58" filter="url(#h)" opacity="-.08" transform="rotate(42.632 871.137 397.58) scale(1.75)"/><use xlink:href="#c" width="16.314" fill="none" stroke="#ffbd9b" opacity=".856" transform="rotate(17.813 349.262 1800.301)"/><use xlink:href="#i" width="20.239" fill="#2c2891" opacity=".834" transform="rotate(-33.018 319.929 -322.187)"/><use xlink:href="#i" width="31.063" fill="#00a19d" filter="url(#g)" opacity=".434" transform="rotate(-41.982 -8.913 180.416)"/><use xlink:href="#f" width="19.542" fill="#2c2891" opacity=".868" transform="rotate(-23.339 169.51 -402.637)"/><use xlink:href="#e" width="23.964" fill="none" stroke="#ffa6d5" filter="url(#g)" opacity=".487" transform="rotate(-6.283 640.164 -1073.916)"/><use xlink:href="#f" width="25.593" fill="#2c2891" filter="url(#d)" opacity=".564" transform="rotate(-25.368 377.495 -873.198)"/><use xlink:href="#a" width="27.947" fill="#2c2891" filter="url(#g)" opacity=".481" transform="rotate(13.294 -773.22 1818.35)"/><use xlink:href="#c" width="22.789" fill="none" stroke="#00a19d" filter="url(#d)" opacity=".614" transform="rotate(11.568 827.976 2914.444)"/><use xlink:href="#c" width="29.118" fill="none" stroke="#ffbd9b" filter="url(#b)" opacity=".281" transform="rotate(-30.591 551.044 69.908) scale(1.25)"/><use xlink:href="#i" width="15.629" fill="#ffa6d5" opacity=".896" transform="rotate(-8.181 -96.69 -2469.135)"/><use xlink:href="#f" width="24.992" fill="#ffa6d5" filter="url(#g)" opacity=".508" transform="rotate(42.016 104.23 1196.207)"/><use xlink:href="#f" width="23.029" fill="#00a19d" filter="url(#d)" opacity=".753" transform="rotate(6.832 -601.231 4123.596)"/><use xlink:href="#c" width="25.644" fill="none" stroke="#ffa6d5" filter="url(#g)" opacity=".462" transform="rotate(43.324 503.77 1025.012)"/><use xlink:href="#c" width="27.839" fill="none" stroke="#2c2891" filter="url(#g)" opacity=".369" transform="rotate(.795 -20266.48 28008.218)"/><use xlink:href="#c" width="23.011" fill="none" stroke="#ff5c58" filter="url(#d)" opacity=".753" transform="rotate(17.591 -101.383 1462.452)"/><use xlink:href="#f" width="35.087" fill="#2c2891" filter="url(#g)" opacity=".386" transform="rotate(-22.083 -438.643 -897.108)"/><use xlink:href="#i" width="30.915" fill="#00a19d" filter="url(#g)" opacity=".535" transform="rotate(-10.996 697.233 -620.532)"/><use xlink:href="#e" width="39.256" fill="none" stroke="#2c2891" filter="url(#b)" opacity=".263" transform="rotate(-20.343 822.822 -899.449) scale(1.25)"/><use xlink:href="#a" width="19.853" fill="#00a19d" filter="url(#d)" opacity=".682" transform="rotate(39.874 16.09 1028.742)"/><use xlink:href="#f" width="35.645" fill="#2c2891" filter="url(#b)" opacity=".12" transform="rotate(26.903 -411.17 1054.928) scale(1.25)"/><use xlink:href="#i" width="22.647" fill="#2c2891" filter="url(#g)" opacity=".533" transform="rotate(2.939 -3736.49 9110.284)"/></svg>